name Walk1.mot
datacolumns 19
datarows 27
range 1.88000000 1.90600000
endheader

                time	   L_ground_force_vx	   L_ground_force_vy	   L_ground_force_vz	   L_ground_force_px	   L_ground_force_py	   L_ground_force_pz	   R_ground_force_vx	   R_ground_force_vy	   R_ground_force_vz	   R_ground_force_px	   R_ground_force_py	   R_ground_force_pz	   L_ground_torque_x	   L_ground_torque_y	   L_ground_torque_z	   R_ground_torque_x	   R_ground_torque_y	   R_ground_torque_z	
          1.88000000	        -12.68122991	        567.84659646	         25.92166143	          0.43149688	          0.00000000	          0.25965447	          0.00000000	          0.00000000	          0.00000000	          0.00000000	          0.00000000	          0.00000000	          0.00000000	         -2.16207880	          0.00000000	          0.00000000	          0.00000000	          0.00000000	
          1.88100000	        -12.22873465	        567.50617912	         26.04517005	          0.43173134	          0.00000000	          0.25957211	          0.00000000	          0.00000000	          0.00000000	          0.00000000	          0.00000000	          0.00000000	          0.00000000	         -2.15223090	          0.00000000	          0.00000000	          0.00000000	          0.00000000	
          1.88200000	        -11.78222555	        567.20089234	         26.15531712	          0.43202143	          0.00000000	          0.25949135	          0.00000000	          0.00000000	          0.00000000	          0.00000000	          0.00000000	          0.00000000	          0.00000000	         -2.16002834	          0.00000000	          0.00000000	          0.00000000	          0.00000000	
          1.88300000	        -11.32907485	        567.03921013	         26.25763378	          0.43236300	          0.00000000	          0.25941810	          0.00000000	          0.00000000	          0.00000000	          0.00000000	          0.00000000	          0.00000000	          0.00000000	         -2.17941891	          0.00000000	          0.00000000	          0.00000000	          0.00000000	
          1.88400000	        -10.86209250	        567.11027476	         26.35814962	          0.43273026	          0.00000000	          0.25935536	          0.00000000	          0.00000000	          0.00000000	          0.00000000	          0.00000000	          0.00000000	          0.00000000	         -2.20236459	          0.00000000	          0.00000000	          0.00000000	          0.00000000	
          1.88500000	        -10.37598282	        567.40868847	         26.45989857	          0.43308608	          0.00000000	          0.25929134	          0.00000000	          0.00000000	          0.00000000	          0.00000000	          0.00000000	          0.00000000	          0.00000000	         -2.22359546	          0.00000000	          0.00000000	          0.00000000	          0.00000000	
          1.88600000	         -9.86561634	        567.84685779	         26.56366297	          0.43339831	          0.00000000	          0.25920392	          0.00000000	          0.00000000	          0.00000000	          0.00000000	          0.00000000	          0.00000000	          0.00000000	         -2.23980685	          0.00000000	          0.00000000	          0.00000000	          0.00000000	
          1.88700000	         -9.33314497	        568.34516753	         26.66687049	          0.43366713	          0.00000000	          0.25908713	          0.00000000	          0.00000000	          0.00000000	          0.00000000	          0.00000000	          0.00000000	          0.00000000	         -2.24569409	          0.00000000	          0.00000000	          0.00000000	          0.00000000	
          1.88800000	         -8.78869806	        568.87501678	         26.76517378	          0.43393175	          0.00000000	          0.25896065	          0.00000000	          0.00000000	          0.00000000	          0.00000000	          0.00000000	          0.00000000	          0.00000000	         -2.23370053	          0.00000000	          0.00000000	          0.00000000	          0.00000000	
          1.88900000	         -8.24147619	        569.41964581	         26.85428494	          0.43423889	          0.00000000	          0.25884867	          0.00000000	          0.00000000	          0.00000000	          0.00000000	          0.00000000	          0.00000000	          0.00000000	         -2.20192648	          0.00000000	          0.00000000	          0.00000000	          0.00000000	
          1.89000000	         -7.69258184	        569.94926887	         26.92901303	          0.43461226	          0.00000000	          0.25876147	          0.00000000	          0.00000000	          0.00000000	          0.00000000	          0.00000000	          0.00000000	          0.00000000	         -2.15954224	          0.00000000	          0.00000000	          0.00000000	          0.00000000	
          1.89100000	         -7.13910868	        570.45052147	         26.98857301	          0.43503982	          0.00000000	          0.25869430	          0.00000000	          0.00000000	          0.00000000	          0.00000000	          0.00000000	          0.00000000	          0.00000000	         -2.12078962	          0.00000000	          0.00000000	          0.00000000	          0.00000000	
          1.89200000	         -6.58710614	        570.94926563	         27.03901525	          0.43547564	          0.00000000	          0.25862771	          0.00000000	          0.00000000	          0.00000000	          0.00000000	          0.00000000	          0.00000000	          0.00000000	         -2.09706094	          0.00000000	          0.00000000	          0.00000000	          0.00000000	
          1.89300000	         -6.05267858	        571.50618374	         27.08630122	          0.43586554	          0.00000000	          0.25853717	          0.00000000	          0.00000000	          0.00000000	          0.00000000	          0.00000000	          0.00000000	          0.00000000	         -2.09535316	          0.00000000	          0.00000000	          0.00000000	          0.00000000	
          1.89400000	         -5.54594162	        572.18795582	         27.13510849	          0.43618162	          0.00000000	          0.25841681	          0.00000000	          0.00000000	          0.00000000	          0.00000000	          0.00000000	          0.00000000	          0.00000000	         -2.11814241	          0.00000000	          0.00000000	          0.00000000	          0.00000000	
          1.89500000	         -5.06337620	        573.01806033	         27.19059075	          0.43643732	          0.00000000	          0.25828810	          0.00000000	          0.00000000	          0.00000000	          0.00000000	          0.00000000	          0.00000000	          0.00000000	         -2.16174679	          0.00000000	          0.00000000	          0.00000000	          0.00000000	
          1.89600000	         -4.59752559	        573.97037013	         27.25114363	          0.43667319	          0.00000000	          0.25818243	          0.00000000	          0.00000000	          0.00000000	          0.00000000	          0.00000000	          0.00000000	          0.00000000	         -2.21645833	          0.00000000	          0.00000000	          0.00000000	          0.00000000	
          1.89700000	         -4.14597592	        575.01591013	         27.29556185	          0.43692351	          0.00000000	          0.25811618	          0.00000000	          0.00000000	          0.00000000	          0.00000000	          0.00000000	          0.00000000	          0.00000000	         -2.26771499	          0.00000000	          0.00000000	          0.00000000	          0.00000000	
          1.89800000	         -3.71008851	        576.14395392	         27.28382789	          0.43719116	          0.00000000	          0.25807515	          0.00000000	          0.00000000	          0.00000000	          0.00000000	          0.00000000	          0.00000000	          0.00000000	         -2.29869772	          0.00000000	          0.00000000	          0.00000000	          0.00000000	
          1.89900000	         -3.28950588	        577.33892323	         27.19165623	          0.43745097	          0.00000000	          0.25802399	          0.00000000	          0.00000000	          0.00000000	          0.00000000	          0.00000000	          0.00000000	          0.00000000	         -2.30038160	          0.00000000	          0.00000000	          0.00000000	          0.00000000	
          1.90000000	         -2.88227396	        578.56843876	         27.04075610	          0.43768026	          0.00000000	          0.25794142	          0.00000000	          0.00000000	          0.00000000	          0.00000000	          0.00000000	          0.00000000	          0.00000000	         -2.28023977	          0.00000000	          0.00000000	          0.00000000	          0.00000000	
          1.90100000	         -2.48743345	        579.79939411	         26.87295251	          0.43788940	          0.00000000	          0.25784558	          0.00000000	          0.00000000	          0.00000000	          0.00000000	          0.00000000	          0.00000000	          0.00000000	         -2.25292768	          0.00000000	          0.00000000	          0.00000000	          0.00000000	
          1.90200000	         -2.10288362	        581.01671426	         26.70729626	          0.43811460	          0.00000000	          0.25777322	          0.00000000	          0.00000000	          0.00000000	          0.00000000	          0.00000000	          0.00000000	          0.00000000	         -2.22520735	          0.00000000	          0.00000000	          0.00000000	          0.00000000	
          1.90300000	         -1.72527476	        582.22806929	         26.54101268	          0.43837262	          0.00000000	          0.25773748	          0.00000000	          0.00000000	          0.00000000	          0.00000000	          0.00000000	          0.00000000	          0.00000000	         -2.19682595	          0.00000000	          0.00000000	          0.00000000	          0.00000000	
          1.90400000	         -1.35139528	        583.43848684	         26.37530565	          0.43863733	          0.00000000	          0.25771489	          0.00000000	          0.00000000	          0.00000000	          0.00000000	          0.00000000	          0.00000000	          0.00000000	         -2.16898757	          0.00000000	          0.00000000	          0.00000000	          0.00000000	
          1.90500000	         -0.97512308	        584.62625093	         26.21806923	          0.43888471	          0.00000000	          0.25766821	          0.00000000	          0.00000000	          0.00000000	          0.00000000	          0.00000000	          0.00000000	          0.00000000	         -2.14492120	          0.00000000	          0.00000000	          0.00000000	          0.00000000	
          1.90600000	         -0.58900334	        585.77884213	         26.07036779	          0.43913746	          0.00000000	          0.25758285	          0.00000000	          0.00000000	          0.00000000	          0.00000000	          0.00000000	          0.00000000	          0.00000000	         -2.12762096	          0.00000000	          0.00000000	          0.00000000	          0.00000000	
